<svg width="376" height="339" viewBox="0 0 376 339" fill="none" xmlns="http://www.w3.org/2000/svg">
<path d="M0.130417 2.37959H27.4451V120.665H0.130417V2.37959ZM94.2357 122.693C84.906 122.693 75.8573 121.454 67.0895 118.976C58.4343 116.385 51.4651 113.061 46.1819 109.006L55.4555 88.3902C60.5138 92.1077 66.5276 95.0931 73.4967 97.3461C80.466 99.5991 87.4352 100.726 94.4043 100.726C102.16 100.726 107.893 99.5991 111.603 97.3461C115.312 94.9804 117.167 91.8825 117.167 88.0522C117.167 85.2359 116.043 82.9266 113.794 81.1241C111.659 79.209 108.849 77.6882 105.364 76.5616C101.992 75.435 97.3832 74.1959 91.538 72.8441C82.5455 70.7036 75.1828 68.5633 69.4501 66.4229C63.7173 64.2824 58.7715 60.8465 54.6124 56.1151C50.5658 51.3837 48.5425 45.0752 48.5425 37.1894C48.5425 30.3175 50.3972 24.1217 54.1066 18.6016C57.816 12.969 63.3801 8.51918 70.799 5.25225C78.3303 1.9853 87.4913 0.351837 98.2824 0.351837C105.814 0.351837 113.176 1.25306 120.37 3.05551C127.564 4.85795 133.859 7.44898 139.255 10.8286L130.824 31.6131C119.921 25.4171 109.017 22.3192 98.1138 22.3192C90.4702 22.3192 84.7936 23.5583 81.0842 26.0367C77.4872 28.5152 75.6886 31.782 75.6886 35.8375C75.6886 39.8931 77.7683 42.9347 81.9272 44.9624C86.1988 46.8775 92.6621 48.7927 101.317 50.7078C110.31 52.8482 117.672 54.9885 123.405 57.129C129.138 59.2694 134.028 62.649 138.074 67.2678C142.233 71.8865 144.313 78.1387 144.313 86.0245C144.313 92.7837 142.402 98.9796 138.58 104.612C134.871 110.132 129.25 114.526 121.719 117.793C114.188 121.06 105.027 122.693 94.2357 122.693ZM240.706 95.3184H185.908L175.454 120.665H147.465L200.071 2.37959H227.048L279.823 120.665H251.16L240.706 95.3184ZM232.107 74.5339L213.391 29.2473L194.675 74.5339H232.107ZM310.59 24.6849H272.821V2.37959H375.673V24.6849H337.904V120.665H310.59V24.6849Z" fill="black"/>
<path d="M244.484 227.122H214.134V215.564C231.536 211.002 244.484 195.286 244.484 176.429H214.134V166.289C214.134 160.713 209.583 156.151 204.018 156.151H123.085C117.521 156.151 112.969 160.713 112.969 166.289V176.429H82.6188C82.6188 195.286 95.5682 211.002 112.969 215.564V227.122H82.6188C82.6188 245.981 95.5682 261.696 112.969 266.257V277.816H82.6188C82.6188 296.675 95.5682 312.389 112.969 316.952V328.511C112.969 334.086 117.521 338.649 123.085 338.649H204.018C209.583 338.649 214.134 334.086 214.134 328.511V316.952C231.536 312.389 244.484 296.675 244.484 277.816H214.134V266.257C231.536 261.696 244.484 245.981 244.484 227.122ZM163.552 318.371C152.322 318.371 143.319 309.247 143.319 298.094C143.319 286.942 152.322 277.816 163.552 277.816C174.68 277.816 183.785 286.942 183.785 298.094C183.785 309.247 174.781 318.371 163.552 318.371ZM163.552 267.678C152.322 267.678 143.319 258.552 143.319 247.4C143.319 236.248 152.322 227.122 163.552 227.122C174.68 227.122 183.785 236.248 183.785 247.4C183.785 258.552 174.781 267.678 163.552 267.678ZM163.552 216.984C152.322 216.984 143.319 207.859 143.319 196.706C143.319 185.452 152.322 176.429 163.552 176.429C174.68 176.429 183.785 185.452 183.785 196.706C183.785 207.859 174.781 216.984 163.552 216.984Z" fill="black"/>
</svg>
