<svg width="376" height="414" viewBox="0 0 376 414" fill="none" xmlns="http://www.w3.org/2000/svg">
<rect width="376" height="414" fill="white"/>
<path d="M0.130417 3.37959H27.4451V121.665H0.130417V3.37959ZM94.2357 123.693C84.906 123.693 75.8573 122.454 67.0895 119.976C58.4343 117.385 51.4651 114.061 46.1819 110.006L55.4555 89.3902C60.5138 93.1077 66.5276 96.0931 73.4967 98.3461C80.466 100.599 87.4352 101.726 94.4043 101.726C102.16 101.726 107.893 100.599 111.603 98.3461C115.312 95.9804 117.167 92.8825 117.167 89.0522C117.167 86.2359 116.043 83.9266 113.794 82.1241C111.659 80.209 108.849 78.6882 105.364 77.5616C101.992 76.435 97.3832 75.1959 91.538 73.8441C82.5455 71.7036 75.1828 69.5633 69.4501 67.4229C63.7173 65.2824 58.7715 61.8465 54.6124 57.1151C50.5658 52.3837 48.5425 46.0752 48.5425 38.1894C48.5425 31.3175 50.3972 25.1217 54.1066 19.6016C57.816 13.969 63.3801 9.51918 70.799 6.25225C78.3303 2.9853 87.4913 1.35184 98.2824 1.35184C105.814 1.35184 113.176 2.25306 120.37 4.05551C127.564 5.85795 133.859 8.44898 139.255 11.8286L130.824 32.6131C119.921 26.4171 109.017 23.3192 98.1138 23.3192C90.4702 23.3192 84.7936 24.5583 81.0842 27.0367C77.4872 29.5152 75.6886 32.782 75.6886 36.8375C75.6886 40.8931 77.7683 43.9347 81.9272 45.9624C86.1988 47.8775 92.6621 49.7927 101.317 51.7078C110.31 53.8482 117.672 55.9885 123.405 58.129C129.138 60.2694 134.028 63.649 138.074 68.2678C142.233 72.8865 144.313 79.1387 144.313 87.0245C144.313 93.7837 142.402 99.9796 138.58 105.612C134.871 111.132 129.25 115.526 121.719 118.793C114.188 122.06 105.027 123.693 94.2357 123.693ZM240.706 96.3184H185.908L175.454 121.665H147.465L200.071 3.37959H227.048L279.823 121.665H251.16L240.706 96.3184ZM232.107 75.5339L213.391 30.2473L194.675 75.5339H232.107ZM310.59 25.6849H272.821V3.37959H375.673V25.6849H337.904V121.665H310.59V25.6849Z" fill="black"/>
<path d="M244.484 228.122H214.134V216.564C231.536 212.002 244.484 196.286 244.484 177.429H214.134V167.289C214.134 161.713 209.583 157.151 204.018 157.151H123.085C117.521 157.151 112.969 161.713 112.969 167.289V177.429H82.6188C82.6188 196.286 95.5682 212.002 112.969 216.564V228.122H82.6188C82.6188 246.981 95.5682 262.696 112.969 267.257V278.816H82.6188C82.6188 297.675 95.5682 313.389 112.969 317.952V329.511C112.969 335.086 117.521 339.649 123.085 339.649H204.018C209.583 339.649 214.134 335.086 214.134 329.511V317.952C231.536 313.389 244.484 297.675 244.484 278.816H214.134V267.257C231.536 262.696 244.484 246.981 244.484 228.122ZM163.552 319.371C152.322 319.371 143.319 310.247 143.319 299.094C143.319 287.942 152.322 278.816 163.552 278.816C174.68 278.816 183.785 287.942 183.785 299.094C183.785 310.247 174.781 319.371 163.552 319.371ZM163.552 268.678C152.322 268.678 143.319 259.552 143.319 248.4C143.319 237.248 152.322 228.122 163.552 228.122C174.68 228.122 183.785 237.248 183.785 248.4C183.785 259.552 174.781 268.678 163.552 268.678ZM163.552 217.984C152.322 217.984 143.319 208.859 143.319 197.706C143.319 186.452 152.322 177.429 163.552 177.429C174.68 177.429 183.785 186.452 183.785 197.706C183.785 208.859 174.781 217.984 163.552 217.984Z" fill="black"/>
</svg>
