<svg width="223" height="245" viewBox="0 0 223 245" fill="none" xmlns="http://www.w3.org/2000/svg">
<rect width="223" height="245" fill="#E5E5E5"/>
<path d="M0.0773442 2H16.2773V72H0.0773442V2ZM55.8898 73.2C50.3565 73.2 44.9898 72.4667 39.7898 71C34.6565 69.4667 30.5232 67.5 27.3898 65.1L32.8898 52.9C35.8898 55.1 39.4565 56.8667 43.5898 58.2C47.7232 59.5333 51.8565 60.2 55.9898 60.2C60.5898 60.2 63.9898 59.5333 66.1898 58.2C68.3898 56.8 69.4898 54.9667 69.4898 52.7C69.4898 51.0333 68.8232 49.6667 67.4898 48.6C66.2232 47.4667 64.5565 46.5667 62.4898 45.9C60.4898 45.2333 57.7565 44.5 54.2898 43.7C48.9565 42.4333 44.5898 41.1667 41.1898 39.9C37.7898 38.6333 34.8565 36.6 32.3898 33.8C29.9898 31 28.7898 27.2667 28.7898 22.6C28.7898 18.5333 29.8898 14.8667 32.0898 11.6C34.2898 8.26666 37.5898 5.63333 41.9898 3.7C46.4565 1.76666 51.8898 0.799999 58.2898 0.799999C62.7565 0.799999 67.1232 1.33333 71.3898 2.4C75.6565 3.46666 79.3898 5 82.5898 7L77.5898 19.3C71.1232 15.6333 64.6565 13.8 58.1898 13.8C53.6565 13.8 50.2898 14.5333 48.0898 16C45.9565 17.4667 44.8898 19.4 44.8898 21.8C44.8898 24.2 46.1232 26 48.5898 27.2C51.1232 28.3333 54.9565 29.4667 60.0898 30.6C65.4232 31.8667 69.7898 33.1333 73.1898 34.4C76.5898 35.6667 79.4898 37.6667 81.8898 40.4C84.3565 43.1333 85.5898 46.8333 85.5898 51.5C85.5898 55.5 84.4565 59.1667 82.1898 62.5C79.9898 65.7667 76.6565 68.3667 72.1898 70.3C67.7232 72.2333 62.2898 73.2 55.8898 73.2ZM142.759 57H110.259L104.059 72H87.4594L118.659 2H134.659L165.959 72H148.959L142.759 57ZM137.659 44.7L126.559 17.9L115.459 44.7H137.659ZM184.206 15.2H161.806V2H222.806V15.2H200.406V72H184.206V15.2Z" fill="black"/>
<path d="M164.333 143.458H142.708V135.241C155.107 131.997 164.333 120.824 164.333 107.417H142.708V100.208C142.708 96.2437 139.465 93 135.5 93H77.8333C73.8687 93 70.625 96.2437 70.625 100.208V107.417H49C49 120.824 58.2267 131.997 70.625 135.241V143.458H49C49 156.866 58.2267 168.039 70.625 171.282V179.5H49C49 192.908 58.2267 204.08 70.625 207.324V215.542C70.625 219.506 73.8687 222.75 77.8333 222.75H135.5C139.465 222.75 142.708 219.506 142.708 215.542V207.324C155.107 204.08 164.333 192.908 164.333 179.5H142.708V171.282C155.107 168.039 164.333 156.866 164.333 143.458ZM106.667 208.333C98.6654 208.333 92.25 201.846 92.25 193.917C92.25 185.988 98.6654 179.5 106.667 179.5C114.596 179.5 121.083 185.988 121.083 193.917C121.083 201.846 114.668 208.333 106.667 208.333ZM106.667 172.292C98.6654 172.292 92.25 165.804 92.25 157.875C92.25 149.946 98.6654 143.458 106.667 143.458C114.596 143.458 121.083 149.946 121.083 157.875C121.083 165.804 114.668 172.292 106.667 172.292ZM106.667 136.25C98.6654 136.25 92.25 129.763 92.25 121.833C92.25 113.832 98.6654 107.417 106.667 107.417C114.596 107.417 121.083 113.832 121.083 121.833C121.083 129.763 114.668 136.25 106.667 136.25Z" fill="black"/>
</svg>
