<svg width="516" height="224" viewBox="0 0 516 224" fill="none" xmlns="http://www.w3.org/2000/svg">
<circle cx="24.7258" cy="50.629" r="19.6076" fill="#FC2323" stroke="black" stroke-width="0.816985"/>
<circle cx="24.7258" cy="95.5632" r="19.6076" fill="#F2F62D" stroke="black" stroke-width="0.816985"/>
<circle cx="24.7258" cy="140.497" r="19.6076" fill="#3CC84A" stroke="black" stroke-width="0.816985"/>
<path d="M103.152 44.6129H129.856V160H103.152V44.6129ZM195.152 161.978C186.031 161.978 177.185 160.769 168.613 158.352C160.152 155.824 153.338 152.582 148.173 148.626L157.239 128.516C162.185 132.142 168.064 135.054 174.877 137.252C181.69 139.45 188.504 140.549 195.317 140.549C202.9 140.549 208.504 139.45 212.131 137.252C215.757 134.945 217.57 131.922 217.57 128.186C217.57 125.439 216.471 123.186 214.274 121.428C212.186 119.56 209.438 118.076 206.032 116.977C202.735 115.878 198.229 114.669 192.515 113.351C183.723 111.263 176.526 109.175 170.921 107.087C165.317 104.999 160.481 101.647 156.415 97.0316C152.459 92.4161 150.481 86.2622 150.481 78.5697C150.481 71.8662 152.294 65.8222 155.921 60.4374C159.547 54.9428 164.987 50.602 172.24 47.4152C179.603 44.2283 188.559 42.6348 199.108 42.6348C206.471 42.6348 213.669 43.514 220.702 45.2723C227.735 47.0305 233.889 49.5581 239.164 52.8548L230.922 73.13C220.263 67.0859 209.603 64.0639 198.944 64.0639C191.471 64.0639 185.921 65.2727 182.295 67.6903C178.778 70.108 177.02 73.2948 177.02 77.251C177.02 81.2071 179.053 84.1742 183.119 86.1523C187.295 88.0204 193.614 89.8886 202.076 91.7568C210.867 93.8447 218.065 95.9327 223.669 98.0206C229.274 100.109 234.054 103.405 238.01 107.911C242.076 112.417 244.109 118.516 244.109 126.208C244.109 132.802 242.241 138.846 238.505 144.34C234.878 149.725 229.384 154.011 222.021 157.198C214.658 160.385 205.702 161.978 195.152 161.978ZM338.347 135.274H284.774L274.554 160H247.191L298.621 44.6129H324.995L376.589 160H348.567L338.347 135.274ZM329.94 114.999L311.643 70.8223L293.346 114.999H329.94ZM406.667 66.3716H369.744V44.6129H470.295V66.3716H433.371V160H406.667V66.3716Z" fill="black"/>
<path d="M5.05918 200.347H6.35237V218.097H5.05918V200.347ZM18.5976 204.759C20.2542 204.759 21.5643 205.241 22.5279 206.205C23.4914 207.168 23.9732 208.554 23.9732 210.363V218.097H22.7054V210.464C22.7054 208.977 22.325 207.844 21.5643 207.067C20.8205 206.289 19.7725 205.9 18.4201 205.9C16.8649 205.9 15.6393 206.365 14.7434 207.295C13.8475 208.225 13.3995 209.476 13.3995 211.048V218.097H12.1317V204.861H13.3488V207.726C13.8052 206.796 14.4814 206.069 15.3773 205.545C16.2902 205.021 17.3636 204.759 18.5976 204.759ZM33.1739 200.271C31.5172 200.271 30.6889 201.159 30.6889 202.934V204.861H34.9235V205.951H30.7143V218.097H29.4465V205.951H27.0122V204.861H29.4465V202.832C29.4465 201.716 29.7676 200.829 30.41 200.17C31.0524 199.51 31.9568 199.181 33.1232 199.181C33.6303 199.181 34.1121 199.257 34.5685 199.409C35.0418 199.544 35.4306 199.756 35.7349 200.043L35.2278 201.006C34.6868 200.516 34.0022 200.271 33.1739 200.271ZM42.4629 218.198C41.212 218.198 40.0794 217.911 39.0651 217.336C38.0678 216.761 37.2817 215.967 36.707 214.953C36.1322 213.921 35.8448 212.763 35.8448 211.479C35.8448 210.194 36.1322 209.044 36.707 208.03C37.2817 206.999 38.0678 206.196 39.0651 205.621C40.0794 205.047 41.212 204.759 42.4629 204.759C43.7138 204.759 44.838 205.047 45.8353 205.621C46.8496 206.196 47.6441 206.999 48.2188 208.03C48.7936 209.044 49.081 210.194 49.081 211.479C49.081 212.763 48.7936 213.921 48.2188 214.953C47.6441 215.967 46.8496 216.761 45.8353 217.336C44.838 217.911 43.7138 218.198 42.4629 218.198ZM42.4629 217.057C43.4772 217.057 44.3815 216.82 45.176 216.347C45.9875 215.874 46.6214 215.215 47.0778 214.369C47.5511 213.524 47.7878 212.561 47.7878 211.479C47.7878 210.397 47.5511 209.433 47.0778 208.588C46.6214 207.743 45.9875 207.084 45.176 206.61C44.3815 206.137 43.4772 205.9 42.4629 205.9C41.4486 205.9 40.5358 206.137 39.7244 206.61C38.9299 207.084 38.296 207.743 37.8226 208.588C37.3662 209.433 37.138 210.397 37.138 211.479C37.138 212.561 37.3662 213.524 37.8226 214.369C38.296 215.215 38.9299 215.874 39.7244 216.347C40.5358 216.82 41.4486 217.057 42.4629 217.057ZM54.2313 207.751C54.637 206.788 55.2709 206.052 56.1331 205.545C56.9952 205.021 58.0432 204.759 59.2773 204.759V206.002L58.973 205.976C57.5023 205.976 56.3528 206.441 55.5245 207.371C54.6962 208.284 54.282 209.56 54.282 211.2V218.097H53.0142V204.861H54.2313V207.751ZM79.2523 204.759C80.892 204.759 82.1768 205.241 83.1065 206.205C84.0531 207.168 84.5265 208.554 84.5265 210.363V218.097H83.2586V210.464C83.2586 208.977 82.8952 207.844 82.1683 207.067C81.4414 206.289 80.4272 205.9 79.1255 205.9C77.6379 205.9 76.4546 206.365 75.5756 207.295C74.7135 208.225 74.2824 209.476 74.2824 211.048V218.097H73.0146V210.464C73.0146 208.977 72.6511 207.844 71.9243 207.067C71.1974 206.289 70.1831 205.9 68.8815 205.9C67.3939 205.9 66.2106 206.365 65.3315 207.295C64.4694 208.225 64.0384 209.476 64.0384 211.048V218.097H62.7705V204.861H63.9876V207.701C64.4272 206.771 65.078 206.052 65.9401 205.545C66.8191 205.021 67.8588 204.759 69.059 204.759C70.2592 204.759 71.2734 205.03 72.1018 205.571C72.947 206.112 73.5471 206.906 73.9021 207.954C74.3416 206.974 75.0262 206.196 75.9559 205.621C76.9026 205.047 78.0014 204.759 79.2523 204.759ZM94.2242 204.759C95.8639 204.759 97.1233 205.182 98.0023 206.027C98.8813 206.855 99.3208 208.081 99.3208 209.704V218.097H98.1037V215.739C97.6811 216.516 97.0641 217.125 96.2527 217.564C95.4413 217.987 94.4693 218.198 93.3367 218.198C91.866 218.198 90.6996 217.852 89.8375 217.159C88.9923 216.465 88.5697 215.553 88.5697 214.42C88.5697 213.321 88.9585 212.434 89.7361 211.758C90.5306 211.065 91.7899 210.718 93.5142 210.718H98.053V209.653C98.053 208.419 97.7149 207.481 97.0387 206.838C96.3795 206.196 95.4075 205.875 94.1227 205.875C93.2437 205.875 92.3985 206.027 91.5871 206.331C90.7926 206.636 90.1164 207.041 89.5586 207.548L88.9246 206.636C89.5839 206.044 90.3784 205.588 91.3082 205.266C92.2379 204.928 93.2099 204.759 94.2242 204.759ZM93.5142 217.159C94.613 217.159 95.5427 216.905 96.3034 216.398C97.081 215.891 97.6642 215.155 98.053 214.192V211.707H93.5395C92.2379 211.707 91.2913 211.944 90.6996 212.417C90.1249 212.89 89.8375 213.541 89.8375 214.369C89.8375 215.231 90.1587 215.916 90.801 216.423C91.4434 216.913 92.3478 217.159 93.5142 217.159ZM111.112 217.26C110.791 217.564 110.385 217.801 109.895 217.97C109.421 218.122 108.923 218.198 108.399 218.198C107.249 218.198 106.362 217.885 105.736 217.26C105.111 216.618 104.798 215.73 104.798 214.598V205.951H102.364V204.861H104.798V201.97H106.066V204.861H110.275V205.951H106.066V214.471C106.066 215.333 106.269 215.992 106.674 216.449C107.097 216.888 107.714 217.108 108.525 217.108C109.354 217.108 110.038 216.863 110.579 216.373L111.112 217.26ZM114.647 204.861H115.915V218.097H114.647V204.861ZM115.281 201.64C114.994 201.64 114.749 201.547 114.546 201.361C114.343 201.159 114.242 200.913 114.242 200.626C114.242 200.339 114.343 200.094 114.546 199.891C114.749 199.688 114.994 199.586 115.281 199.586C115.569 199.586 115.814 199.688 116.017 199.891C116.22 200.077 116.321 200.313 116.321 200.601C116.321 200.888 116.22 201.133 116.017 201.336C115.814 201.539 115.569 201.64 115.281 201.64ZM126.432 218.198C125.181 218.198 124.048 217.911 123.034 217.336C122.037 216.761 121.251 215.967 120.676 214.953C120.101 213.921 119.814 212.763 119.814 211.479C119.814 210.194 120.101 209.044 120.676 208.03C121.251 206.999 122.037 206.196 123.034 205.621C124.048 205.047 125.181 204.759 126.432 204.759C127.683 204.759 128.807 205.047 129.804 205.621C130.818 206.196 131.613 206.999 132.188 208.03C132.762 209.044 133.05 210.194 133.05 211.479C133.05 212.763 132.762 213.921 132.188 214.953C131.613 215.967 130.818 216.761 129.804 217.336C128.807 217.911 127.683 218.198 126.432 218.198ZM126.432 217.057C127.446 217.057 128.35 216.82 129.145 216.347C129.956 215.874 130.59 215.215 131.047 214.369C131.52 213.524 131.757 212.561 131.757 211.479C131.757 210.397 131.52 209.433 131.047 208.588C130.59 207.743 129.956 207.084 129.145 206.61C128.35 206.137 127.446 205.9 126.432 205.9C125.418 205.9 124.505 206.137 123.693 206.61C122.899 207.084 122.265 207.743 121.792 208.588C121.335 209.433 121.107 210.397 121.107 211.479C121.107 212.561 121.335 213.524 121.792 214.369C122.265 215.215 122.899 215.874 123.693 216.347C124.505 216.82 125.418 217.057 126.432 217.057ZM143.449 204.759C145.106 204.759 146.416 205.241 147.379 206.205C148.343 207.168 148.825 208.554 148.825 210.363V218.097H147.557V210.464C147.557 208.977 147.176 207.844 146.416 207.067C145.672 206.289 144.624 205.9 143.271 205.9C141.716 205.9 140.491 206.365 139.595 207.295C138.699 208.225 138.251 209.476 138.251 211.048V218.097H136.983V204.861H138.2V207.726C138.657 206.796 139.333 206.069 140.229 205.545C141.142 205.021 142.215 204.759 143.449 204.759ZM165.628 218.224C164.326 218.224 163.084 218.004 161.901 217.564C160.734 217.108 159.821 216.525 159.162 215.815L159.745 214.851C160.371 215.51 161.208 216.051 162.256 216.474C163.321 216.88 164.436 217.083 165.603 217.083C167.293 217.083 168.569 216.761 169.432 216.119C170.294 215.477 170.725 214.64 170.725 213.609C170.725 212.814 170.497 212.18 170.04 211.707C169.584 211.234 169.017 210.87 168.341 210.617C167.665 210.363 166.752 210.101 165.603 209.831C164.301 209.509 163.253 209.197 162.458 208.892C161.681 208.588 161.013 208.123 160.455 207.498C159.914 206.855 159.644 206.002 159.644 204.937C159.644 204.075 159.872 203.289 160.329 202.579C160.785 201.852 161.478 201.277 162.408 200.854C163.354 200.432 164.529 200.22 165.932 200.22C166.913 200.22 167.876 200.364 168.823 200.651C169.77 200.939 170.59 201.328 171.283 201.818L170.801 202.857C170.091 202.367 169.305 201.995 168.443 201.742C167.597 201.488 166.761 201.361 165.932 201.361C164.293 201.361 163.05 201.691 162.205 202.35C161.36 203.01 160.937 203.863 160.937 204.911C160.937 205.706 161.165 206.34 161.622 206.813C162.078 207.286 162.644 207.65 163.321 207.903C163.997 208.157 164.918 208.427 166.084 208.715C167.386 209.036 168.426 209.349 169.203 209.653C169.981 209.957 170.64 210.422 171.181 211.048C171.739 211.656 172.018 212.485 172.018 213.533C172.018 214.395 171.781 215.181 171.308 215.891C170.852 216.601 170.142 217.167 169.178 217.59C168.214 218.012 167.031 218.224 165.628 218.224ZM187.191 211.783H175.806C175.839 212.814 176.101 213.735 176.592 214.547C177.082 215.341 177.741 215.958 178.569 216.398C179.415 216.837 180.361 217.057 181.409 217.057C182.271 217.057 183.066 216.905 183.793 216.601C184.537 216.28 185.154 215.815 185.644 215.206L186.379 216.043C185.805 216.736 185.078 217.268 184.199 217.64C183.336 218.012 182.398 218.198 181.384 218.198C180.065 218.198 178.891 217.911 177.859 217.336C176.828 216.761 176.017 215.967 175.425 214.953C174.85 213.938 174.563 212.78 174.563 211.479C174.563 210.194 174.834 209.044 175.374 208.03C175.932 206.999 176.693 206.196 177.657 205.621C178.62 205.047 179.702 204.759 180.902 204.759C182.102 204.759 183.176 205.047 184.123 205.621C185.086 206.179 185.838 206.965 186.379 207.98C186.937 208.994 187.216 210.143 187.216 211.428L187.191 211.783ZM180.902 205.875C179.972 205.875 179.136 206.086 178.392 206.509C177.648 206.915 177.048 207.498 176.592 208.258C176.152 209.002 175.899 209.847 175.831 210.794H185.974C185.923 209.847 185.669 209.002 185.213 208.258C184.756 207.515 184.156 206.931 183.413 206.509C182.669 206.086 181.832 205.875 180.902 205.875ZM196.387 218.198C195.102 218.198 193.953 217.911 192.938 217.336C191.924 216.761 191.13 215.967 190.555 214.953C189.98 213.921 189.693 212.763 189.693 211.479C189.693 210.177 189.98 209.019 190.555 208.005C191.13 206.974 191.924 206.179 192.938 205.621C193.953 205.047 195.102 204.759 196.387 204.759C197.452 204.759 198.415 204.971 199.278 205.393C200.157 205.799 200.867 206.399 201.408 207.193L200.469 207.878C199.996 207.219 199.404 206.729 198.694 206.407C198.001 206.069 197.232 205.9 196.387 205.9C195.356 205.9 194.426 206.137 193.598 206.61C192.786 207.067 192.144 207.717 191.671 208.563C191.214 209.408 190.986 210.38 190.986 211.479C190.986 212.577 191.214 213.549 191.671 214.395C192.144 215.24 192.786 215.899 193.598 216.373C194.426 216.829 195.356 217.057 196.387 217.057C197.232 217.057 198.001 216.897 198.694 216.575C199.404 216.237 199.996 215.739 200.469 215.079L201.408 215.764C200.867 216.558 200.157 217.167 199.278 217.59C198.415 217.995 197.452 218.198 196.387 218.198ZM216.791 204.861V218.097H215.574V215.257C215.134 216.187 214.484 216.913 213.622 217.438C212.759 217.945 211.745 218.198 210.579 218.198C208.854 218.198 207.502 217.716 206.522 216.753C205.541 215.789 205.051 214.403 205.051 212.594V204.861H206.319V212.493C206.319 213.981 206.699 215.113 207.46 215.891C208.221 216.668 209.294 217.057 210.68 217.057C212.168 217.057 213.343 216.592 214.205 215.663C215.084 214.733 215.523 213.482 215.523 211.91V204.861H216.791ZM223.382 207.751C223.788 206.788 224.422 206.052 225.284 205.545C226.146 205.021 227.194 204.759 228.428 204.759V206.002L228.124 205.976C226.653 205.976 225.504 206.441 224.676 207.371C223.847 208.284 223.433 209.56 223.433 211.2V218.097H222.165V204.861H223.382V207.751ZM231.922 204.861H233.189V218.097H231.922V204.861ZM232.556 201.64C232.268 201.64 232.023 201.547 231.82 201.361C231.617 201.159 231.516 200.913 231.516 200.626C231.516 200.339 231.617 200.094 231.82 199.891C232.023 199.688 232.268 199.586 232.556 199.586C232.843 199.586 233.088 199.688 233.291 199.891C233.494 200.077 233.595 200.313 233.595 200.601C233.595 200.888 233.494 201.133 233.291 201.336C233.088 201.539 232.843 201.64 232.556 201.64ZM245.1 217.26C244.779 217.564 244.374 217.801 243.883 217.97C243.41 218.122 242.911 218.198 242.387 218.198C241.238 218.198 240.35 217.885 239.725 217.26C239.099 216.618 238.787 215.73 238.787 214.598V205.951H236.352V204.861H238.787V201.97H240.055V204.861H244.264V205.951H240.055V214.471C240.055 215.333 240.257 215.992 240.663 216.449C241.086 216.888 241.703 217.108 242.514 217.108C243.342 217.108 244.027 216.863 244.568 216.373L245.1 217.26ZM259.013 204.861L252.217 219.897C251.71 221.063 251.119 221.892 250.442 222.382C249.783 222.872 248.997 223.117 248.084 223.117C247.476 223.117 246.901 223.016 246.36 222.813C245.836 222.61 245.388 222.314 245.016 221.926L245.65 220.962C246.326 221.655 247.146 222.002 248.11 222.002C248.752 222.002 249.301 221.824 249.758 221.469C250.214 221.114 250.637 220.506 251.026 219.644L251.736 218.046L245.777 204.861H247.121L252.42 216.702L257.72 204.861H259.013ZM279.683 213.102H269.388L267.131 218.097H265.736L273.901 200.347H275.194L283.359 218.097H281.965L279.683 213.102ZM279.201 212.011L274.535 201.767L269.895 212.011H279.201ZM289.399 218.198C288.334 218.198 287.32 218.038 286.356 217.716C285.393 217.395 284.64 216.99 284.099 216.499L284.683 215.485C285.224 215.941 285.917 216.322 286.762 216.626C287.624 216.93 288.52 217.083 289.45 217.083C290.785 217.083 291.766 216.863 292.391 216.423C293.033 215.984 293.355 215.375 293.355 214.598C293.355 214.04 293.177 213.6 292.822 213.279C292.484 212.958 292.061 212.721 291.554 212.569C291.047 212.417 290.346 212.256 289.45 212.087C288.402 211.901 287.556 211.698 286.914 211.479C286.272 211.259 285.722 210.904 285.266 210.414C284.809 209.924 284.581 209.247 284.581 208.385C284.581 207.337 285.012 206.475 285.874 205.799C286.753 205.106 287.996 204.759 289.602 204.759C290.447 204.759 291.284 204.878 292.112 205.114C292.94 205.351 293.617 205.664 294.141 206.052L293.557 207.067C293.017 206.678 292.4 206.382 291.706 206.179C291.013 205.976 290.303 205.875 289.576 205.875C288.342 205.875 287.413 206.103 286.787 206.56C286.162 207.016 285.849 207.616 285.849 208.36C285.849 208.952 286.027 209.416 286.382 209.754C286.737 210.076 287.168 210.321 287.675 210.49C288.199 210.642 288.926 210.811 289.855 210.997C290.887 211.183 291.715 211.386 292.34 211.605C292.983 211.808 293.524 212.146 293.963 212.62C294.403 213.093 294.622 213.744 294.622 214.572C294.622 215.671 294.166 216.55 293.253 217.209C292.34 217.869 291.056 218.198 289.399 218.198ZM301.508 218.198C300.443 218.198 299.429 218.038 298.465 217.716C297.501 217.395 296.749 216.99 296.208 216.499L296.791 215.485C297.332 215.941 298.025 216.322 298.871 216.626C299.733 216.93 300.629 217.083 301.558 217.083C302.894 217.083 303.874 216.863 304.5 216.423C305.142 215.984 305.463 215.375 305.463 214.598C305.463 214.04 305.286 213.6 304.931 213.279C304.593 212.958 304.17 212.721 303.663 212.569C303.156 212.417 302.454 212.256 301.558 212.087C300.51 211.901 299.665 211.698 299.023 211.479C298.38 211.259 297.831 210.904 297.375 210.414C296.918 209.924 296.69 209.247 296.69 208.385C296.69 207.337 297.121 206.475 297.983 205.799C298.862 205.106 300.105 204.759 301.711 204.759C302.556 204.759 303.393 204.878 304.221 205.114C305.049 205.351 305.725 205.664 306.249 206.052L305.666 207.067C305.125 206.678 304.508 206.382 303.815 206.179C303.122 205.976 302.412 205.875 301.685 205.875C300.451 205.875 299.521 206.103 298.896 206.56C298.271 207.016 297.958 207.616 297.958 208.36C297.958 208.952 298.135 209.416 298.49 209.754C298.845 210.076 299.276 210.321 299.784 210.49C300.308 210.642 301.034 210.811 301.964 210.997C302.995 211.183 303.824 211.386 304.449 211.605C305.091 211.808 305.632 212.146 306.072 212.62C306.511 213.093 306.731 213.744 306.731 214.572C306.731 215.671 306.275 216.55 305.362 217.209C304.449 217.869 303.164 218.198 301.508 218.198ZM321.452 211.783H310.067C310.1 212.814 310.362 213.735 310.853 214.547C311.343 215.341 312.002 215.958 312.83 216.398C313.676 216.837 314.622 217.057 315.67 217.057C316.533 217.057 317.327 216.905 318.054 216.601C318.798 216.28 319.415 215.815 319.905 215.206L320.64 216.043C320.066 216.736 319.339 217.268 318.46 217.64C317.598 218.012 316.659 218.198 315.645 218.198C314.327 218.198 313.152 217.911 312.12 217.336C311.089 216.761 310.278 215.967 309.686 214.953C309.112 213.938 308.824 212.78 308.824 211.479C308.824 210.194 309.095 209.044 309.636 208.03C310.193 206.999 310.954 206.196 311.918 205.621C312.881 205.047 313.963 204.759 315.163 204.759C316.363 204.759 317.437 205.047 318.384 205.621C319.347 206.179 320.099 206.965 320.64 207.98C321.198 208.994 321.477 210.143 321.477 211.428L321.452 211.783ZM315.163 205.875C314.234 205.875 313.397 206.086 312.653 206.509C311.909 206.915 311.309 207.498 310.853 208.258C310.413 209.002 310.16 209.847 310.092 210.794H320.235C320.184 209.847 319.93 209.002 319.474 208.258C319.017 207.515 318.417 206.931 317.674 206.509C316.93 206.086 316.093 205.875 315.163 205.875ZM328.746 218.198C327.681 218.198 326.667 218.038 325.704 217.716C324.74 217.395 323.988 216.99 323.447 216.499L324.03 215.485C324.571 215.941 325.264 216.322 326.109 216.626C326.971 216.93 327.867 217.083 328.797 217.083C330.132 217.083 331.113 216.863 331.738 216.423C332.381 215.984 332.702 215.375 332.702 214.598C332.702 214.04 332.524 213.6 332.169 213.279C331.831 212.958 331.409 212.721 330.902 212.569C330.394 212.417 329.693 212.256 328.797 212.087C327.749 211.901 326.904 211.698 326.261 211.479C325.619 211.259 325.07 210.904 324.613 210.414C324.157 209.924 323.929 209.247 323.929 208.385C323.929 207.337 324.36 206.475 325.222 205.799C326.101 205.106 327.343 204.759 328.949 204.759C329.794 204.759 330.631 204.878 331.459 205.114C332.288 205.351 332.964 205.664 333.488 206.052L332.905 207.067C332.364 206.678 331.747 206.382 331.054 206.179C330.361 205.976 329.651 205.875 328.924 205.875C327.69 205.875 326.76 206.103 326.135 206.56C325.509 207.016 325.196 207.616 325.196 208.36C325.196 208.952 325.374 209.416 325.729 209.754C326.084 210.076 326.515 210.321 327.022 210.49C327.546 210.642 328.273 210.811 329.203 210.997C330.234 211.183 331.062 211.386 331.688 211.605C332.33 211.808 332.871 212.146 333.31 212.62C333.75 213.093 333.97 213.744 333.97 214.572C333.97 215.671 333.513 216.55 332.6 217.209C331.688 217.869 330.403 218.198 328.746 218.198ZM340.855 218.198C339.79 218.198 338.776 218.038 337.812 217.716C336.849 217.395 336.096 216.99 335.555 216.499L336.139 215.485C336.68 215.941 337.373 216.322 338.218 216.626C339.08 216.93 339.976 217.083 340.906 217.083C342.241 217.083 343.222 216.863 343.847 216.423C344.489 215.984 344.811 215.375 344.811 214.598C344.811 214.04 344.633 213.6 344.278 213.279C343.94 212.958 343.517 212.721 343.01 212.569C342.503 212.417 341.802 212.256 340.906 212.087C339.858 211.901 339.012 211.698 338.37 211.479C337.728 211.259 337.178 210.904 336.722 210.414C336.265 209.924 336.037 209.247 336.037 208.385C336.037 207.337 336.468 206.475 337.33 205.799C338.209 205.106 339.452 204.759 341.058 204.759C341.903 204.759 342.74 204.878 343.568 205.114C344.396 205.351 345.073 205.664 345.597 206.052L345.013 207.067C344.473 206.678 343.856 206.382 343.162 206.179C342.469 205.976 341.759 205.875 341.032 205.875C339.798 205.875 338.869 206.103 338.243 206.56C337.618 207.016 337.305 207.616 337.305 208.36C337.305 208.952 337.483 209.416 337.838 209.754C338.193 210.076 338.624 210.321 339.131 210.49C339.655 210.642 340.382 210.811 341.311 210.997C342.343 211.183 343.171 211.386 343.796 211.605C344.439 211.808 344.98 212.146 345.419 212.62C345.859 213.093 346.078 213.744 346.078 214.572C346.078 215.671 345.622 216.55 344.709 217.209C343.796 217.869 342.512 218.198 340.855 218.198ZM366.098 204.759C367.738 204.759 369.023 205.241 369.953 206.205C370.899 207.168 371.373 208.554 371.373 210.363V218.097H370.105V210.464C370.105 208.977 369.741 207.844 369.014 207.067C368.288 206.289 367.273 205.9 365.972 205.9C364.484 205.9 363.301 206.365 362.422 207.295C361.56 208.225 361.129 209.476 361.129 211.048V218.097H359.861V210.464C359.861 208.977 359.497 207.844 358.77 207.067C358.044 206.289 357.029 205.9 355.728 205.9C354.24 205.9 353.057 206.365 352.178 207.295C351.316 208.225 350.885 209.476 350.885 211.048V218.097H349.617V204.861H350.834V207.701C351.273 206.771 351.924 206.052 352.786 205.545C353.665 205.021 354.705 204.759 355.905 204.759C357.105 204.759 358.12 205.03 358.948 205.571C359.793 206.112 360.393 206.906 360.748 207.954C361.188 206.974 361.872 206.196 362.802 205.621C363.749 205.047 364.848 204.759 366.098 204.759ZM387.815 211.783H376.429C376.463 212.814 376.725 213.735 377.216 214.547C377.706 215.341 378.365 215.958 379.193 216.398C380.039 216.837 380.985 217.057 382.033 217.057C382.895 217.057 383.69 216.905 384.417 216.601C385.161 216.28 385.778 215.815 386.268 215.206L387.003 216.043C386.428 216.736 385.702 217.268 384.822 217.64C383.96 218.012 383.022 218.198 382.008 218.198C380.689 218.198 379.515 217.911 378.483 217.336C377.452 216.761 376.641 215.967 376.049 214.953C375.474 213.938 375.187 212.78 375.187 211.479C375.187 210.194 375.457 209.044 375.998 208.03C376.556 206.999 377.317 206.196 378.28 205.621C379.244 205.047 380.326 204.759 381.526 204.759C382.726 204.759 383.8 205.047 384.746 205.621C385.71 206.179 386.462 206.965 387.003 207.98C387.561 208.994 387.84 210.143 387.84 211.428L387.815 211.783ZM381.526 205.875C380.596 205.875 379.76 206.086 379.016 206.509C378.272 206.915 377.672 207.498 377.216 208.258C376.776 209.002 376.522 209.847 376.455 210.794H386.597C386.547 209.847 386.293 209.002 385.837 208.258C385.38 207.515 384.78 206.931 384.036 206.509C383.293 206.086 382.456 205.875 381.526 205.875ZM398.228 204.759C399.885 204.759 401.195 205.241 402.158 206.205C403.122 207.168 403.604 208.554 403.604 210.363V218.097H402.336V210.464C402.336 208.977 401.955 207.844 401.195 207.067C400.451 206.289 399.403 205.9 398.051 205.9C396.495 205.9 395.27 206.365 394.374 207.295C393.478 208.225 393.03 209.476 393.03 211.048V218.097H391.762V204.861H392.979V207.726C393.436 206.796 394.112 206.069 395.008 205.545C395.921 205.021 396.994 204.759 398.228 204.759ZM415.391 217.26C415.069 217.564 414.664 217.801 414.174 217.97C413.7 218.122 413.202 218.198 412.677 218.198C411.528 218.198 410.641 217.885 410.015 217.26C409.39 216.618 409.077 215.73 409.077 214.598V205.951H406.643V204.861H409.077V201.97H410.345V204.861H414.554V205.951H410.345V214.471C410.345 215.333 410.548 215.992 410.953 216.449C411.376 216.888 411.993 217.108 412.804 217.108C413.633 217.108 414.317 216.863 414.858 216.373L415.391 217.26ZM429.242 201.514H422.852V200.347H436.925V201.514H430.535V218.097H429.242V201.514ZM443.513 218.198C442.262 218.198 441.129 217.911 440.115 217.336C439.118 216.761 438.332 215.967 437.757 214.953C437.182 213.921 436.895 212.763 436.895 211.479C436.895 210.194 437.182 209.044 437.757 208.03C438.332 206.999 439.118 206.196 440.115 205.621C441.129 205.047 442.262 204.759 443.513 204.759C444.764 204.759 445.888 205.047 446.885 205.621C447.899 206.196 448.694 206.999 449.269 208.03C449.843 209.044 450.131 210.194 450.131 211.479C450.131 212.763 449.843 213.921 449.269 214.953C448.694 215.967 447.899 216.761 446.885 217.336C445.888 217.911 444.764 218.198 443.513 218.198ZM443.513 217.057C444.527 217.057 445.431 216.82 446.226 216.347C447.037 215.874 447.671 215.215 448.128 214.369C448.601 213.524 448.838 212.561 448.838 211.479C448.838 210.397 448.601 209.433 448.128 208.588C447.671 207.743 447.037 207.084 446.226 206.61C445.431 206.137 444.527 205.9 443.513 205.9C442.498 205.9 441.586 206.137 440.774 206.61C439.98 207.084 439.346 207.743 438.872 208.588C438.416 209.433 438.188 210.397 438.188 211.479C438.188 212.561 438.416 213.524 438.872 214.369C439.346 215.215 439.98 215.874 440.774 216.347C441.586 216.82 442.498 217.057 443.513 217.057ZM459.237 218.198C457.986 218.198 456.853 217.911 455.839 217.336C454.842 216.761 454.056 215.967 453.481 214.953C452.906 213.921 452.619 212.763 452.619 211.479C452.619 210.194 452.906 209.044 453.481 208.03C454.056 206.999 454.842 206.196 455.839 205.621C456.853 205.047 457.986 204.759 459.237 204.759C460.488 204.759 461.612 205.047 462.609 205.621C463.623 206.196 464.418 206.999 464.993 208.03C465.567 209.044 465.855 210.194 465.855 211.479C465.855 212.763 465.567 213.921 464.993 214.953C464.418 215.967 463.623 216.761 462.609 217.336C461.612 217.911 460.488 218.198 459.237 218.198ZM459.237 217.057C460.251 217.057 461.155 216.82 461.95 216.347C462.761 215.874 463.395 215.215 463.852 214.369C464.325 213.524 464.562 212.561 464.562 211.479C464.562 210.397 464.325 209.433 463.852 208.588C463.395 207.743 462.761 207.084 461.95 206.61C461.155 206.137 460.251 205.9 459.237 205.9C458.222 205.9 457.31 206.137 456.498 206.61C455.704 207.084 455.07 207.743 454.596 208.588C454.14 209.433 453.912 210.397 453.912 211.479C453.912 212.561 454.14 213.524 454.596 214.369C455.07 215.215 455.704 215.874 456.498 216.347C457.31 216.82 458.222 217.057 459.237 217.057ZM469.788 199.282H471.056V218.097H469.788V199.282Z" fill="black"/>
</svg>
